<svg width="558" height="112" viewBox="0 0 558 112" fill="none" xmlns="http://www.w3.org/2000/svg">
<path d="M18.26 38.5601L0 28.0901V83.9601L48.55 111.78V90.9701L18.25 73.5001L18.26 38.5601Z" fill="#E6E7E8"/>
<path d="M65.3299 44.55L50.8699 36.29C49.4399 35.46 47.6799 35.46 46.2499 36.29L32.7999 44.29C32.1199 44.71 31.5599 45.29 31.1699 45.99L48.5499 55.99L65.3299 46.37C65.8299 46.14 66.0499 45.55 65.8299 45.05C65.7299 44.83 65.5499 44.65 65.3299 44.55V44.55Z" fill="white"/>
<path d="M78.9098 52.4001L48.5498 69.9901V76.1501C49.3498 76.1501 50.1398 75.9401 50.8398 75.5401L66.7498 66.3901L78.9098 73.3901L48.5498 90.9901V111.8L97.0998 83.9901V28.0901L78.9098 38.5201V52.4001V52.4001Z" fill="#F1F2F2"/>
<path d="M48.5504 55.92L31.1704 45.99C30.7804 46.67 30.5704 47.45 30.5604 48.24L30.4004 63.64C30.4004 65.29 31.2704 66.81 32.6904 67.64L46.2604 75.49C46.9604 75.89 47.7504 76.11 48.5504 76.11V55.92V55.92Z" fill="#E6E7E8"/>
<path d="M78.91 38.51L97.1 28.09L48.66 0L0 28.09L18.26 38.56L48.55 20.82L78.91 38.51Z" fill="white"/>
<path d="M146.12 57.55H119.28C120.28 61.24 123.67 63.83 128.93 63.83C132.83 63.71 136.68 62.91 140.31 61.47L143.76 71.47C143.76 71.47 138.27 75.16 128.62 75.16C112.92 75.16 106.1 65.74 106.1 54.44C106.1 43.14 113.01 33.69 126.81 33.69C139.21 33.69 146.27 41.38 146.27 54.41C146.27 55.27 146.2 56.53 146.12 57.55ZM133.12 50.02C132.98 46.41 129.94 43.6 126.33 43.73C126.29 43.73 126.25 43.73 126.22 43.73C122.22 43.73 119.31 47.34 119.31 50.01H133.12V50.02Z" fill="white"/>
<path d="M187.7 70.34C184.09 73.79 177.97 75.13 172.94 75.13C159.29 75.13 151.29 65.87 151.29 54.41C151.29 42.95 159.45 33.69 172.94 33.69C177.94 33.69 183.94 35.03 187.7 38.48L183.14 48.6C180.54 46.31 177.2 45.02 173.73 44.99C168.53 44.75 164.12 48.77 163.88 53.98C163.64 59.18 167.66 63.59 172.87 63.83C173.16 63.84 173.45 63.84 173.74 63.83C177.19 63.78 180.52 62.53 183.15 60.29L187.71 70.34H187.7Z" fill="white"/>
<path d="M234.15 54.41C234.15 65.87 225.52 75.13 212.81 75.13C200.1 75.13 191.46 65.87 191.46 54.41C191.46 42.95 199.39 33.69 212.81 33.69C225.36 33.69 234.15 42.99 234.15 54.41ZM221.6 54.41C221.6 49.23 217.67 44.99 212.81 44.99C207.95 44.99 204 49.23 204 54.41C204 59.59 207.92 63.83 212.79 63.83C217.66 63.83 221.6 59.59 221.6 54.41Z" fill="white"/>
<path d="M300.7 51.2772V73.8772H288.14V52.5272C288.14 46.2572 285.86 44.9972 283.14 44.9972C280.42 44.9972 276.86 46.7272 276.86 53.7872V73.8772H264.28V52.5272C264.28 46.2572 262.01 44.9972 259.28 44.9972C256.55 44.9972 253.01 46.7272 253.01 53.7872V73.8772H240.43V34.9972H253V38.7572C255.66 35.6272 258.49 33.7572 263 33.7572C267.11 33.6172 271.02 35.5272 273.44 38.8572C276.81 35.0172 281.75 33.7572 285.6 33.7572C293.56 33.6972 300.7 39.5072 300.7 51.2772Z" fill="white"/>
<path d="M369.12 51.2772V73.8772H356.56V52.5272C356.56 46.2572 354.28 44.9972 351.56 44.9972C348.84 44.9972 345.28 46.7272 345.28 53.7872V73.8772H332.7V52.5272C332.7 46.2572 330.43 44.9972 327.7 44.9972C324.97 44.9972 321.43 46.7272 321.43 53.7872V73.8772H308.85V34.9972H321.42V38.7572C324.08 35.6272 326.91 33.7572 331.42 33.7572C335.53 33.6172 339.44 35.5272 341.86 38.8572C345.23 35.0172 350.17 33.7572 354.02 33.7572C361.98 33.6972 369.12 39.5072 369.12 51.2772Z" fill="white"/>
<path d="M376 22.39C376 18.23 379.38 14.86 383.54 14.87C387.7 14.87 391.07 18.25 391.06 22.41C391.06 26.56 387.68 29.93 383.53 29.93C379.37 29.93 376 26.56 376 22.4V22.39ZM377.28 34.98H389.84V73.86H377.28V34.99V34.98Z" fill="white"/>
<path d="M401.77 34.9969C401.85 26.2069 403.34 17.4169 414.32 17.4169C417.3 17.3069 420.28 17.7369 423.11 18.6769V28.6769C414.32 26.8669 414.32 30.6769 414.32 34.9569H423.11V46.2569H414.32V73.8769H401.77V46.2569H396.77V34.9969H401.77Z" fill="white"/>
<path d="M469.57 34.99L445.71 93.99H431.9L442 71.04L426.88 34.99H440.69L448.22 56.33L455.75 34.99H469.57Z" fill="white"/>
<path d="M473.32 68.22C473.32 64.4 476.41 61.31 480.23 61.31C484.05 61.31 487.14 64.4 487.14 68.22C487.14 72.04 484.05 75.13 480.23 75.13C476.44 75.15 473.34 72.09 473.32 68.3C473.32 68.27 473.32 68.25 473.32 68.22Z" fill="white"/>
<path d="M494.68 22.39C494.68 18.23 498.06 14.86 502.22 14.87C506.38 14.87 509.75 18.25 509.74 22.41C509.74 26.56 506.36 29.93 502.21 29.93C498.05 29.93 494.68 26.56 494.68 22.4V22.39ZM495.93 34.98H508.49V73.86H495.93V34.99V34.98Z" fill="white"/>
<path d="M557.42 54.41C557.42 65.87 548.79 75.13 536.08 75.13C523.37 75.13 514.74 65.87 514.74 54.41C514.74 42.95 522.66 33.69 536.08 33.69C548.64 33.69 557.42 42.99 557.42 54.41ZM544.87 54.41C544.87 49.23 540.94 44.99 536.08 44.99C531.22 44.99 527.29 49.23 527.29 54.41C527.29 59.59 531.21 63.83 536.08 63.83C540.95 63.83 544.87 59.59 544.87 54.41Z" fill="white"/>
</svg>
