<svg id="Layer_1" data-name="Layer 1" xmlns="http://www.w3.org/2000/svg" xmlns:xlink="http://www.w3.org/1999/xlink" viewBox="0 0 97.45 112.5"><defs><style>.cls-1{fill:none;}.cls-2{clip-path:url(#clip-path);}.cls-3{fill:#3200aa;}.cls-4{fill:#05a;}.cls-5{fill:#5a00c8;}.cls-6{fill:#fff;}</style><clipPath id="clip-path"><path class="cls-1" d="M45.47,1.84,3.18,26.26A6.35,6.35,0,0,0,0,31.77v48.5a6.36,6.36,0,0,0,3.2,5.52L45.39,110a6.36,6.36,0,0,0,6.32,0L93.9,85.79a6.36,6.36,0,0,0,3.2-5.52V31.76a6.36,6.36,0,0,0-3.17-5.5L51.84,1.85A6.36,6.36,0,0,0,45.47,1.84Z"/></clipPath></defs><title>ecommifyicon</title><g class="cls-2"><polygon class="cls-3" points="48.55 111.78 0 83.96 0 28.09 48.55 55.91 48.55 111.78"/><polygon class="cls-4" points="48.55 111.78 97.1 83.96 97.1 28.09 48.55 55.91 48.55 111.78"/><polygon class="cls-5" points="48.66 0 97.1 28.09 48.55 55.91 0 28.09 48.66 0"/><path class="cls-6" d="M48.55,55.92V70L78.91,52.4V38.52L48.54,20.83,18.26,38.56V73.5L48.55,91,78.91,73.4l-12.16-7L50.84,75.52a4.62,4.62,0,0,1-4.58,0L32.69,67.66a4.6,4.6,0,0,1-2.29-4l.16-15.43a4.57,4.57,0,0,1,2.24-3.9l13.45-8a4.6,4.6,0,0,1,4.62,0l14.46,8.26A1,1,0,0,1,65.72,46a1,1,0,0,1-.39.39Z"/></g></svg>